<?xml version="1.0" standalone="no"?>
<!DOCTYPE svg PUBLIC "-//W3C//DTD SVG 20010904//EN"
 "http://www.w3.org/TR/2001/REC-SVG-20010904/DTD/svg10.dtd">
<svg version="1.0" xmlns="http://www.w3.org/2000/svg"
 width="268.000000pt" height="140.000000pt" viewBox="0 0 268.000000 140.000000"
 preserveAspectRatio="xMidYMid meet">

<g transform="translate(0.000000,140.000000) scale(0.100000,-0.100000)"
fill="#000000" stroke="none">
<path d="M743 1390 c-87 -12 -186 -38 -273 -71 -41 -16 -82 -29 -92 -29 -9 0
-29 -10 -45 -23 -15 -12 -54 -39 -86 -60 -61 -40 -79 -64 -57 -77 19 -11 64
13 123 66 82 74 302 149 479 163 127 10 213 -1 244 -30 30 -28 30 -41 0 -104
-60 -130 -273 -362 -646 -705 -340 -314 -442 -453 -368 -504 66 -47 238 0 749
199 253 100 309 125 309 141 0 19 -10 18 -67 -7 -114 -49 -587 -230 -689 -262
-120 -39 -235 -61 -265 -52 -28 9 -24 53 8 100 54 81 143 173 368 380 454 418
655 656 655 776 0 37 -21 64 -70 89 -30 16 -193 22 -277 10z"/>
<path d="M2631 998 c-19 -46 -22 -55 -71 -215 l-31 -103 -40 0 c-31 0 -46 -6
-65 -27 -75 -86 -93 -102 -117 -108 -15 -4 -34 -5 -42 -1 -17 6 -20 58 -5 86
19 35 -10 33 -50 -4 -66 -59 -96 -45 -69 33 6 18 9 35 5 38 -11 12 -35 -19
-43 -56 -6 -27 -23 -51 -66 -90 -76 -68 -106 -80 -129 -51 -10 12 -18 28 -18
35 0 8 -12 27 -26 45 l-26 31 25 37 c44 68 87 161 87 190 0 105 -120 18 -165
-119 -13 -39 -14 -56 -6 -80 10 -28 8 -33 -16 -53 -31 -24 -65 -45 -75 -46 -5
0 -8 19 -8 43 0 72 -29 85 -83 37 -41 -35 -47 -37 -47 -10 0 15 -7 20 -25 20
-24 0 -25 2 -19 36 10 52 -16 41 -37 -16 -33 -89 -139 -147 -155 -84 -4 14 -1
37 5 50 25 55 1 60 -48 9 -56 -58 -90 -42 -65 30 14 42 13 50 -9 42 -17 -7
-40 -82 -32 -108 9 -28 48 -41 82 -28 19 7 29 7 31 0 8 -24 45 -61 61 -61 9 0
33 9 54 19 29 15 37 16 37 5 0 -27 28 -13 56 29 l29 42 3 -32 c4 -44 24 -42
68 7 43 47 54 50 54 12 0 -15 7 -38 16 -50 26 -37 68 -27 135 35 l26 24 15
-23 c8 -13 25 -42 37 -65 37 -74 102 -68 190 17 43 41 55 48 71 40 12 -7 27
-7 45 0 38 14 42 13 49 -15 11 -42 45 -51 101 -26 57 25 52 25 58 1 10 -39 38
-36 79 8 21 23 38 35 38 28 0 -7 -11 -64 -25 -126 -15 -66 -22 -117 -17 -122
17 -17 29 17 67 187 24 108 51 201 75 255 41 93 80 221 80 263 0 42 -28 33
-49 -15z m-744 -241 c-19 -40 -44 -83 -55 -97 l-21 -25 -1 36 c0 44 43 132 78
160 39 30 39 9 -1 -74z m613 -115 c0 -14 -70 -112 -80 -112 -24 0 -6 64 28
103 15 17 52 24 52 9z"/>
</g>
</svg>
